<svg width="24" height="24" viewBox="0 0 24 24" fill="none" xmlns="http://www.w3.org/2000/svg">
<path d="M14.7699 5.87C14.9995 6.00037 15.2714 6.03464 15.5262 5.96532C15.7809 5.896 15.998 5.72873 16.1299 5.5C16.2391 5.30736 16.4091 5.15639 16.6133 5.07078C16.8175 4.98517 17.0443 4.96975 17.2582 5.02694C17.4721 5.08414 17.661 5.21071 17.7952 5.38681C17.9295 5.56291 18.0014 5.77858 17.9999 6C17.9999 6.26522 17.8945 6.51957 17.707 6.70711C17.5195 6.89464 17.2651 7 16.9999 7C16.7347 7 16.4803 7.10536 16.2928 7.29289C16.1053 7.48043 15.9999 7.73478 15.9999 8C15.9999 8.26522 16.1053 8.51957 16.2928 8.70711C16.4803 8.89464 16.7347 9 16.9999 9C17.5264 8.99966 18.0436 8.86075 18.4994 8.59723C18.9553 8.33371 19.3337 7.95486 19.5968 7.49875C19.8598 7.04264 19.9982 6.52533 19.998 5.9988C19.9978 5.47227 19.859 4.95507 19.5956 4.49917C19.3322 4.04326 18.9534 3.66472 18.4973 3.40156C18.0413 3.13841 17.524 2.99992 16.9975 3C16.471 3.00008 15.9537 3.13874 15.4978 3.40204C15.0418 3.66534 14.6632 4.04401 14.3999 4.5C14.3338 4.61413 14.2909 4.74022 14.2737 4.871C14.2565 5.00178 14.2654 5.13466 14.2998 5.262C14.3342 5.38934 14.3934 5.50862 14.4741 5.61297C14.5548 5.71732 14.6553 5.80467 14.7699 5.87ZM19.0699 13C18.8074 12.9659 18.5421 13.0373 18.3322 13.1985C18.1222 13.3597 17.9848 13.5976 17.9499 13.86C17.74 15.5552 16.9176 17.1151 15.6375 18.246C14.3574 19.3769 12.708 20.0007 10.9999 20H5.4099L6.0599 19.35C6.24615 19.1626 6.35069 18.9092 6.35069 18.645C6.35069 18.3808 6.24615 18.1274 6.0599 17.94C5.08484 16.9611 4.42128 15.7156 4.15279 14.3603C3.8843 13.005 4.02288 11.6005 4.55109 10.3238C5.07931 9.04714 5.97351 7.95532 7.12108 7.18589C8.26865 6.41646 9.61826 6.00384 10.9999 6C11.2651 6 11.5195 5.89464 11.707 5.70711C11.8945 5.51957 11.9999 5.26522 11.9999 5C11.9999 4.73478 11.8945 4.48043 11.707 4.29289C11.5195 4.10536 11.2651 4 10.9999 4C9.30913 4.00705 7.65454 4.49024 6.22569 5.39419C4.79684 6.29815 3.65153 7.58632 2.92096 9.11112C2.19039 10.6359 1.90412 12.3357 2.09494 14.0157C2.28576 15.6956 2.94596 17.2879 3.9999 18.61L2.2899 20.29C2.15114 20.4306 2.05714 20.6092 2.01977 20.8032C1.98239 20.9972 2.00332 21.1979 2.0799 21.38C2.15492 21.5626 2.28231 21.7189 2.44603 21.8293C2.60975 21.9396 2.80247 21.999 2.9999 22H10.9999C13.1913 22.0003 15.3076 21.201 16.9517 19.7521C18.5958 18.3031 19.6547 16.3041 19.9299 14.13C19.9482 13.9993 19.9404 13.8662 19.907 13.7385C19.8736 13.6107 19.8152 13.4909 19.7353 13.3858C19.6553 13.2808 19.5554 13.1926 19.4412 13.1264C19.327 13.0602 19.2008 13.0172 19.0699 13ZM17.3799 10.07C17.1978 9.98945 16.9959 9.96508 16.7999 10L16.6199 10.06L16.4399 10.15L16.2899 10.28C16.1999 10.3721 16.1286 10.4808 16.0799 10.6C16.0208 10.7247 15.9933 10.8621 15.9999 11C15.997 11.1334 16.0208 11.266 16.0699 11.39C16.1216 11.51 16.1964 11.6187 16.2899 11.71C16.3833 11.8027 16.4942 11.876 16.616 11.9258C16.7378 11.9755 16.8683 12.0008 16.9999 12C17.2651 12 17.5195 11.8946 17.707 11.7071C17.8945 11.5196 17.9999 11.2652 17.9999 11C18.0033 10.8688 17.9759 10.7387 17.9199 10.62C17.8124 10.3797 17.6202 10.1875 17.3799 10.08V10.07Z" fill="black"/>
</svg>
