<svg width="64" height="64" viewBox="0 0 64 64" fill="none" xmlns="http://www.w3.org/2000/svg">
    <path d="M51.84 34.6665C51.2533 34.6665 50.64 34.4798 50.0533 34.3465C48.8653 34.0847 47.6978 33.7371 46.56 33.3065C45.3229 32.8564 43.9631 32.8798 42.7422 33.3721C41.5212 33.8644 40.5256 34.7908 39.9467 35.9731L39.36 37.1731C36.7627 35.7283 34.376 33.9338 32.2667 31.8398C30.1727 29.7305 28.3782 27.3438 26.9333 24.7465L28.0533 23.9998C29.2356 23.4209 30.1621 22.4252 30.6544 21.2043C31.1467 19.9834 31.1701 18.6236 30.72 17.3865C30.2966 16.2463 29.9492 15.0793 29.68 13.8931C29.5467 13.3065 29.44 12.6931 29.36 12.0798C29.0362 10.2015 28.0523 8.50046 26.5857 7.28312C25.119 6.06578 23.2659 5.4121 21.36 5.43981H13.36C12.2107 5.42902 11.0727 5.66598 10.0232 6.13456C8.97378 6.60314 8.03762 7.29233 7.27848 8.15523C6.51933 9.01813 5.95502 10.0345 5.62396 11.135C5.2929 12.2356 5.20287 13.3946 5.35999 14.5331C6.78063 25.7048 11.8827 36.0848 19.8604 44.0335C27.8381 51.9822 38.2366 57.0465 49.4133 58.4265H50.4267C52.3931 58.4294 54.2917 57.7079 55.76 56.3998C56.6036 55.6453 57.2776 54.7203 57.7372 53.686C58.1969 52.6517 58.4319 51.5316 58.4267 50.3998V42.3998C58.394 40.5475 57.7195 38.764 56.5182 37.3536C55.317 35.9432 53.6635 34.9935 51.84 34.6665ZM53.1733 50.6665C53.1729 51.0451 53.0917 51.4193 52.9354 51.7641C52.7791 52.109 52.5511 52.4166 52.2667 52.6665C51.9687 52.9237 51.6203 53.1159 51.2437 53.2307C50.8672 53.3455 50.4708 53.3804 50.08 53.3331C40.0931 52.0526 30.8166 47.4838 23.7139 40.3473C16.6112 33.2107 12.0864 23.9127 10.8533 13.9198C10.8109 13.5292 10.8481 13.134 10.9627 12.7582C11.0773 12.3823 11.2668 12.0336 11.52 11.7331C11.7699 11.4487 12.0775 11.2207 12.4223 11.0644C12.7672 10.9081 13.1414 10.827 13.52 10.8265H21.52C22.1401 10.8127 22.7457 11.0155 23.2324 11.4C23.7191 11.7845 24.0566 12.3267 24.1867 12.9331C24.2933 13.662 24.4267 14.382 24.5867 15.0931C24.8947 16.4989 25.3047 17.8803 25.8133 19.2265L22.08 20.9598C21.7608 21.1063 21.4737 21.3143 21.2351 21.5721C20.9965 21.8298 20.8112 22.1321 20.6898 22.4617C20.5684 22.7912 20.5133 23.1415 20.5276 23.4924C20.5419 23.8433 20.6254 24.1879 20.7733 24.5065C24.6112 32.7272 31.2193 39.3353 39.44 43.1731C40.0892 43.4399 40.8174 43.4399 41.4667 43.1731C41.7992 43.0542 42.1049 42.8704 42.3658 42.6323C42.6267 42.3943 42.8378 42.1068 42.9867 41.7865L44.64 38.0531C46.0186 38.5462 47.4256 38.9558 48.8533 39.2798C49.5644 39.4398 50.2844 39.5731 51.0133 39.6798C51.6198 39.8099 52.162 40.1474 52.5465 40.6341C52.931 41.1208 53.1338 41.7264 53.12 42.3465L53.1733 50.6665Z" fill="#232946"/>
    </svg>
    