<svg xmlns="http://www.w3.org/2000/svg" viewBox="0 0 400 300" width="406" height="306" class="illustration styles_illustrationTablet__1DWOa"><g id="_315_competition_outline" data-name="#315_competition_outline"><path d="M293.69,150a93.3,93.3,0,0,1-5.83,32.57c-.42,1.13-.86,2.25-1.32,3.35a93.91,93.91,0,0,1-43,47c-.94.5-1.9,1-2.86,1.44a93.8,93.8,0,0,1-76.57,2.18c-1-.41-2-.84-3-1.29a93.89,93.89,0,0,1-45.33-44.07c-.51-1-1-2.1-1.48-3.16A93.7,93.7,0,1,1,293.69,150Z" fill="#fff"></path><path d="M200,244.69a93.75,93.75,0,0,1-36.22-7.2c-1.06-.43-2.08-.87-3-1.3A95,95,0,0,1,115,191.65c-.56-1.14-1-2.19-1.49-3.19a94.69,94.69,0,1,1,175.34-5.54c-.44,1.18-.89,2.32-1.34,3.39a94.88,94.88,0,0,1-43.4,47.52c-.89.48-1.84.95-2.9,1.46A93.63,93.63,0,0,1,200,244.69Zm0-187.38a92.72,92.72,0,0,0-84.72,130.33c.44,1,.92,2,1.47,3.13a92.91,92.91,0,0,0,44.84,43.6c.92.42,1.91.85,2.95,1.27a92.77,92.77,0,0,0,75.75-2.15c1-.5,2-1,2.83-1.42a93,93,0,0,0,42.5-46.53c.43-1,.87-2.17,1.3-3.32A92.71,92.71,0,0,0,200,57.31Z" fill="#093f68"></path><path d="M189.37,99.92S153.29,143.28,158,150.6s44.08,34.92,58.15,41.11l13.8,16.61L267,175.8S225.5,116.33,215.83,107,189.37,99.92,189.37,99.92Z" fill="#ffc9b0"></path><path d="M229.91,209.32h-.08a1,1,0,0,1-.69-.36L215.5,192.53c-16.31-7.27-54.1-34.66-58.39-41.39-4.81-7.55,25.39-44.52,31.49-51.86a1,1,0,0,1,.63-.35c.7-.1,17.39-2.29,27.3,7.31,9.63,9.33,49.63,66.56,51.33,69a1,1,0,0,1-.16,1.32l-37.13,32.52A1,1,0,0,1,229.91,209.32Zm-40-108.45c-13.77,16.58-34.17,44.34-31.08,49.19,4.44,7,43.28,34.38,57.72,40.73a1.09,1.09,0,0,1,.36.28L230,206.89l35.69-31.25c-4.81-6.86-41.66-59.32-50.57-68C206.72,99.52,192.38,100.61,189.88,100.87Z" fill="#093f68"></path><path d="M143,174.25s39.8-57.44,48.05-64.57,27.17-20.47,35.06-20.18c7.46.28,11.5,6.67,4,16,0,0,8.07-5.25,13,1.88S239.13,121,239.13,121s8.12-3.51,11.43,2.23c3.14,5.44-5.73,12.76-5.73,12.76s7-7.29,11.41,1.69c4.08,8.31-41.47,43.64-47.28,46.47-6.93,3.38-15.65,2.52-15.65,2.52L173.57,211Z" fill="#e28362"></path><path d="M173.57,212a1,1,0,0,1-.77-.36l-30.57-36.79a1,1,0,0,1,0-1.21c1.63-2.35,40-57.62,48.22-64.76S217.52,88.5,225.86,88.5h.29c4,.15,7,1.87,8.28,4.71s.74,6.23-1.46,10c3.4-1,7.83-.8,10.91,3.69s1.26,9.09-1.26,12.16c3.13-.39,6.8.2,8.8,3.68,1.84,3.18.25,6.78-1.76,9.54a6,6,0,0,1,1.84,0c2.29.35,4.19,2,5.63,5a4.83,4.83,0,0,1,0,3.74c-4,11.78-42.07,41.32-47.7,44.07-6.18,3-13.58,2.79-15.65,2.66l-19.4,24a1,1,0,0,1-.77.37ZM144.26,174.2l29.3,35.27,19-23.46a1,1,0,0,1,.87-.36c.09,0,8.54.78,15.12-2.43,5.43-2.65,42.9-31.86,46.69-42.91a3.17,3.17,0,0,0,.13-2.22c-1.14-2.32-2.53-3.62-4.14-3.87-1.92-.31-3.83.92-4.87,1.74-.47.45-.79.72-.86.77a1,1,0,0,1-1.36-1.46,10.78,10.78,0,0,1,.89-.8c2-1.87,6.86-7,4.69-10.77-2.82-4.89-9.87-1.94-10.17-1.81a1,1,0,0,1-1-1.72c.32-.24,8-5.94,3.68-12.18s-11.28-1.79-11.58-1.6a1,1,0,0,1-1.32-1.46c3.39-4.24,4.56-8.11,3.29-10.89-1-2.13-3.36-3.42-6.54-3.54h-.24c-7.7,0-26.25,13.14-34.12,19.94C184.1,117,148.6,168,144.26,174.2Z" fill="#093f68"></path><rect x="140.74" y="145.79" width="40.39" height="13.96" rx="6.3" transform="translate(96.75 -59.64) rotate(29.68)" fill="#ffc9b0"></rect><path d="M172.66,167.54a7.19,7.19,0,0,1-3.6-1l-24.15-13.76a7.31,7.31,0,0,1-2.73-10l.68-1.18a7.29,7.29,0,0,1,9.95-2.73L177,152.71a7.32,7.32,0,0,1,2.73,10l-.68,1.18a7.26,7.26,0,0,1-4.41,3.43A7.61,7.61,0,0,1,172.66,167.54ZM149.2,140a5.14,5.14,0,0,0-1.4.19,5.29,5.29,0,0,0-3.21,2.49l-.67,1.18a5.3,5.3,0,0,0,2,7.23l24.15,13.76h0a5.28,5.28,0,0,0,7.22-2l.68-1.18a5.31,5.31,0,0,0-2-7.23l-24.15-13.76A5.3,5.3,0,0,0,149.2,140Z" fill="#093f68"></path><rect x="144.73" y="133.74" width="46.54" height="13.96" rx="6.75" transform="translate(91.71 -64.72) rotate(29.68)" fill="#ffc9b0"></rect><path d="M182.23,156.85a7.71,7.71,0,0,1-3.83-1l-28.71-16.36a7.74,7.74,0,0,1-2.89-10.57l.23-.41a7.75,7.75,0,0,1,10.56-2.89L186.3,142a7.75,7.75,0,0,1,2.9,10.57l-.23.4A7.74,7.74,0,0,1,182.23,156.85Zm-28.46-30.26a5.8,5.8,0,0,0-5,2.91l-.23.4a5.75,5.75,0,0,0,2.15,7.84l28.71,16.36h0a5.74,5.74,0,0,0,7.84-2.15l.23-.4a5.74,5.74,0,0,0-2.15-7.84L156.6,127.35A5.72,5.72,0,0,0,153.77,126.59Z" fill="#093f68"></path><rect x="151.42" y="122.45" width="49.92" height="13.96" rx="6.98" transform="translate(87.22 -70.35) rotate(29.68)" fill="#ffc9b0"></rect><path d="M192,146.32a8,8,0,0,1-3.93-1h0L156.8,127.46a8,8,0,1,1,7.91-13.86L196,131.4A8,8,0,0,1,194.11,146,8.16,8.16,0,0,1,192,146.32ZM189,143.53A6,6,0,0,0,195,133.14l-31.24-17.81a6,6,0,0,0-5.93,10.39Z" fill="#093f68"></path><rect x="158.55" y="109.49" width="46.54" height="13.96" rx="6.75" transform="translate(81.52 -74.75) rotate(29.68)" fill="#ffc9b0"></rect><path d="M196.05,132.6a7.72,7.72,0,0,1-3.82-1l-28.71-16.36a7.75,7.75,0,0,1-2.9-10.57l.23-.4a7.76,7.76,0,0,1,10.57-2.9l28.71,16.36a7.75,7.75,0,0,1,2.9,10.57l-.23.4a7.72,7.72,0,0,1-4.69,3.64A7.63,7.63,0,0,1,196.05,132.6Zm-28.46-30.26a5.74,5.74,0,0,0-5,2.9l-.23.4a5.75,5.75,0,0,0,2.15,7.84l28.71,16.36h0a5.75,5.75,0,0,0,7.84-2.15l.23-.4a5.75,5.75,0,0,0-2.15-7.84l-28.71-16.36A5.72,5.72,0,0,0,167.59,102.34Z" fill="#093f68"></path><path d="M197,104.14l-3.38.85s-18,10.42-22.53,3.66,19.43-23.65,25-23.93,14.42,9.77,14.42,9.77Z" fill="#ffc9b0"></path><path d="M176.32,111.94c-2.84,0-4.87-.92-6.09-2.74-1-1.57-1-3.58.23-6,4-8,20.5-19.26,25.58-19.51h.27c6,0,14.58,9.7,14.95,10.12a1,1,0,0,1,.24.77,1,1,0,0,1-.41.7L197.55,105a1,1,0,0,1-.34.15l-3.25.82a63.05,63.05,0,0,1-9.62,4.37A25.29,25.29,0,0,1,176.32,111.94Zm20-26.23h-.19c-4,.2-20,10.76-23.89,18.41-.86,1.7-1,3-.35,4,3.26,4.9,16.4-1.2,21.19-4a1.17,1.17,0,0,1,.26-.1l3.19-.8L209,94.33C206.19,91.31,200.15,85.71,196.33,85.71Zm.64,18.43h0Z" fill="#093f68"></path><path d="M180.72,216l-16.56,20.61c-1-.41-2-.84-3-1.29a93.89,93.89,0,0,1-45.33-44.07l13.36-16.63,4.49,3.6,37.8,30.37h0l2.46,2h0l2.25,1.81Z" fill="#232946"></path><path d="M164.16,237.57a1,1,0,0,1-.38-.07c-1.06-.44-2.08-.88-3-1.31A95,95,0,0,1,115,191.65a1,1,0,0,1,.12-1.07L128.43,174a1,1,0,0,1,1.41-.15l42.29,34,0,0,2.35,1.89.09.06,6.74,5.42a1,1,0,0,1,.15,1.41L164.94,237.2A1,1,0,0,1,164.16,237.57ZM117,191.34a93,93,0,0,0,44.56,43c.72.33,1.47.66,2.26,1l15.46-19.25-5.88-4.73-.09-.06-2.46-2,0,0L129.36,176Z" fill="#093f68"></path><rect x="131.59" y="184.18" width="54.55" height="12.46" transform="translate(154.26 -57.53) rotate(38.78)" fill="#fff"></rect><path d="M176.23,213.35a1,1,0,0,1-.63-.22L133.07,179a1,1,0,0,1-.15-1.4l7.8-9.72a1,1,0,0,1,.68-.36,1,1,0,0,1,.73.21l42.53,34.16a1,1,0,0,1,.15,1.41L177,213a1,1,0,0,1-.67.36ZM135.11,178l41,32.91,6.55-8.15-41-32.91Z" fill="#093f68"></path><path d="M286.54,185.92a93.91,93.91,0,0,1-43,47c-.94.5-1.9,1-2.86,1.44L225.92,216l4.49-3.61,42.53-34.17,4.49-3.6Z" fill="#232946"></path><path d="M240.73,235.39A1,1,0,0,1,240,235l-14.81-18.43a1,1,0,0,1,.15-1.41L276.8,173.8a1,1,0,0,1,1.41.15l9.11,11.34a1,1,0,0,1,.14,1,94.86,94.86,0,0,1-43.4,47.53c-.89.48-1.84.95-2.9,1.46A.94.94,0,0,1,240.73,235.39Zm-13.4-19.28,13.68,17c.75-.37,1.45-.72,2.11-1.07a93,93,0,0,0,42.27-46L277.28,176l-3.71,3Z" fill="#093f68"></path><rect x="220.5" y="184.18" width="54.55" height="12.46" transform="translate(560.19 183.68) rotate(141.22)" fill="#fff"></rect><path d="M230.41,213.35h-.1a1,1,0,0,1-.68-.36l-7.8-9.72a1,1,0,0,1,.15-1.41l42.53-34.16a1,1,0,0,1,1.41.15l7.8,9.72a1,1,0,0,1-.15,1.4L231,213.13A1,1,0,0,1,230.41,213.35ZM224,202.79l6.55,8.15,41-32.91L265,169.88Z" fill="#093f68"></path><path d="M160.43,92.38a1,1,0,0,1-.76-.34l-5.07-5.82a1,1,0,0,1,1.51-1.32l5.07,5.82a1,1,0,0,1-.1,1.41A1,1,0,0,1,160.43,92.38Z" fill="#dfeaef"></path><path d="M139.74,116.47a1,1,0,0,1-.33-.06l-15.73-5.54a1,1,0,1,1,.66-1.88l15.73,5.53a1,1,0,0,1-.33,2Z" fill="#dfeaef"></path><path d="M123.08,157.08a1,1,0,0,1-.23-2l8.8-2.07a1,1,0,0,1,.46,1.94l-8.8,2.08A.91.91,0,0,1,123.08,157.08Z" fill="#dfeaef"></path><path d="M239.57,92.38a1,1,0,0,1-.65-.25,1,1,0,0,1-.1-1.41l5.07-5.82a1,1,0,0,1,1.51,1.32L240.33,92A1,1,0,0,1,239.57,92.38Z" fill="#dfeaef"></path><path d="M260.26,116.47a1,1,0,0,1-.33-2L275.66,109a1,1,0,1,1,.66,1.88l-15.73,5.54A1,1,0,0,1,260.26,116.47Z" fill="#dfeaef"></path><path d="M276.92,157.08a.91.91,0,0,1-.23,0l-8.8-2.08a1,1,0,0,1,.46-1.94l8.8,2.07a1,1,0,0,1-.23,2Z" fill="#dfeaef"></path><path d="M200,76a1,1,0,0,1-1-1V61.47a1,1,0,0,1,2,0V75A1,1,0,0,1,200,76Z" fill="#dfeaef"></path><path d="M200,220.56a1,1,0,0,1-1-1V206a1,1,0,1,1,2,0v13.52A1,1,0,0,1,200,220.56Z" fill="#dfeaef"></path></g></svg>