<svg xmlns="http://www.w3.org/2000/svg" viewBox="0 0 400 300" width="406" height="306" class="illustration styles_illustrationTablet__1DWOa"><g id="_311_customer_service_flatline" data-name="#311_customer_service_flatline"><path d="M186,99.72s.75-11.5,0-14.68-5.26-10.88-6.76-10.32-1.69,2.82,0,5.82c0,0-9.58-7.79-13.24-7.65s-5.72,4.84-5.16,7.09,9,6.15,9.58,8,2.06,14.85,2.06,14.85" fill="#fff"></path><path d="M172.5,103.38a.51.51,0,0,1-.5-.44c0-.13-1.5-12.93-2-14.77-.22-.73-2.45-2.2-4.24-3.38-2.57-1.71-5-3.32-5.34-4.69a7,7,0,0,1,1.46-5.32A5.52,5.52,0,0,1,166,72.39c2.91-.11,9,4.26,11.95,6.49a5,5,0,0,1-.2-3.25,2.21,2.21,0,0,1,1.33-1.37,1.2,1.2,0,0,1,1,.12c2.07,1.1,5.76,7.78,6.41,10.55.76,3.22,0,14.35,0,14.82a.49.49,0,0,1-.53.47.5.5,0,0,1-.46-.53c0-.12.73-11.46,0-14.53-.81-3.45-5.1-10.11-6.11-10a1.26,1.26,0,0,0-.73.78c-.36,1,0,2.56,1,4.33a.49.49,0,0,1-.11.62.5.5,0,0,1-.64,0c-2.62-2.14-10-7.65-12.9-7.54a4.57,4.57,0,0,0-3.4,2,6.11,6.11,0,0,0-1.29,4.48c.25,1,2.84,2.71,4.93,4.09,2.68,1.78,4.34,2.93,4.64,3.94.56,1.92,2,14.4,2.08,14.93a.51.51,0,0,1-.44.56Z" fill="#231f20"></path><polygon points="210.64 253.7 351.25 220.93 351.25 198.3 210.64 212.74 210.64 253.7" fill="#fff"></polygon><path d="M210.64,254.21a.52.52,0,0,1-.32-.11.54.54,0,0,1-.2-.4v-41a.52.52,0,0,1,.47-.52l140.6-14.43a.49.49,0,0,1,.4.13.52.52,0,0,1,.17.38v22.63a.52.52,0,0,1-.4.51L210.76,254.2Zm.52-41v39.85l139.57-32.53V198.87Z" fill="#231f20"></path><polygon points="56.42 175.34 56.42 200.09 210.64 253.7 210.64 204.57 56.42 175.34" fill="#fff"></polygon><path d="M210.64,254.21l-.17,0L56.25,200.58a.52.52,0,0,1-.34-.49V175.34a.55.55,0,0,1,.18-.4.52.52,0,0,1,.43-.11l154.22,29.23a.52.52,0,0,1,.42.51V253.7a.55.55,0,0,1-.22.42A.53.53,0,0,1,210.64,254.21ZM56.94,199.73,210.12,253V205L56.94,176Z" fill="#231f20"></path><path d="M314.44,195s14.08-82.45,2.25-94.12-65.9-13.85-78-10.71-21.38,86.59-21.38,86.59Z" fill="#231f20"></path><path d="M314.44,195.47h-.09L217.2,177.22a.5.5,0,0,1-.4-.55c.38-3.42,9.44-83.81,21.75-87,11.29-2.93,66.18-1.31,78.49,10.84,11.87,11.71-1.53,91.18-2.11,94.55a.49.49,0,0,1-.21.33A.47.47,0,0,1,314.44,195.47Zm-96.6-19.14L314,194.39c1.15-6.9,13.35-82.3,2.31-93.18-5-4.94-19.07-8.86-38.6-10.77-15.57-1.52-32.68-1.44-38.94.18-3.32.86-8.59,9.21-14.87,44.08C220.46,154,218.2,173.14,217.84,176.33Z" fill="#231f20"></path><polygon points="356.26 194.25 356.26 202.7 211.54 232.84 49.74 177.44 49.74 170.7 356.26 194.25" fill="#fff"></polygon><path d="M211.54,233.34a.45.45,0,0,1-.16,0l-161.8-55.4a.51.51,0,0,1-.34-.47V170.7a.5.5,0,0,1,.54-.5L356.3,193.75a.5.5,0,0,1,.46.5v8.45a.5.5,0,0,1-.4.49L211.65,233.32ZM50.24,177.08l161.34,55.24,144.18-30v-7.57L50.24,171.24Z" fill="#231f20"></path><path d="M291.86,104.41c4.73,17.24-6.41,98.3-6.41,98.3L220.3,177.24s13.38-16.08-2.62-49.78c-6.54-13.78.19-21,4.75-24.88C226.26,99.32,287.12,87.17,291.86,104.41Z" fill="#232946"></path><polygon points="155.15 152.17 356.26 194.25 211.54 222.14 49.74 170.7 155.15 152.17" fill="#fff"></polygon><path d="M211.54,222.65l-.15,0L49.58,171.19a.52.52,0,0,1,.07-1l105.41-18.52a.41.41,0,0,1,.19,0l201.12,42.08a.52.52,0,0,1,.41.51.53.53,0,0,1-.42.5L211.64,222.64ZM51.9,170.84,211.57,221.6l142.07-27.37L155.14,152.7Z" fill="#231f20"></path><path d="M220.39,181.49S171.4,166,170.55,166s-62.78,10.63-62.78,10.63l51.43,17.59Z" fill="#fff"></path><path d="M159.2,194.77a.47.47,0,0,1-.17,0l-51.43-17.6a.51.51,0,0,1-.35-.52.52.52,0,0,1,.43-.47c6.34-1.09,62-10.64,62.87-10.64s38.48,11.85,50,15.49a.49.49,0,0,1,.36.51.51.51,0,0,1-.41.48L159.3,194.76Zm-49.35-18,49.38,16.9,59.12-12.33c-14.52-4.58-46.61-14.66-47.85-14.85C169.49,166.62,131.49,173.11,109.85,176.82Z" fill="#231f20"></path><path d="M152.28,188a.45.45,0,0,1-.2,0l-27.27-12.27a.5.5,0,0,1,.14-.95l31.89-4.49a.46.46,0,0,1,.26,0l28.37,12.06a.49.49,0,0,1,.3.52.5.5,0,0,1-.43.43l-33,4.7ZM126.8,175.44l25.56,11.49,31.07-4.41-26.59-11.31Z" fill="#d1d3d4"></path><polygon points="159.2 194.25 220.67 187.01 220.39 181.49 159.2 189.68 159.2 194.25" fill="#fff"></polygon><path d="M159.2,194.77a.56.56,0,0,1-.35-.13.52.52,0,0,1-.17-.39v-4.57a.51.51,0,0,1,.45-.51L220.32,181a.5.5,0,0,1,.58.48l.29,5.52a.52.52,0,0,1-.46.54l-61.47,7.25Zm.51-4.64v3.54l60.42-7.12-.23-4.48Z" fill="#231f20"></path><polygon points="159.2 194.25 147.94 112.44 96.13 109.81 107.77 176.66 159.2 194.25" fill="#fff"></polygon><path d="M159.2,194.77a.47.47,0,0,1-.17,0l-51.43-17.6a.5.5,0,0,1-.34-.4L95.62,109.9a.52.52,0,0,1,.12-.43.51.51,0,0,1,.41-.17L148,111.92a.53.53,0,0,1,.49.45l11.26,81.81a.52.52,0,0,1-.19.47A.49.49,0,0,1,159.2,194.77Zm-51-18.5,50.35,17.22-11.09-80.56-50.73-2.57Z" fill="#231f20"></path><path d="M185.92,179.57l-.17,0-17-6a.49.49,0,0,1,.08-1l9.72-1.52a.52.52,0,0,1,.25,0l17.36,6.34a.5.5,0,0,1,.33.53.49.49,0,0,1-.45.43l-10,1.13Zm-15-6.26L186,178.56l7.81-.87-15.24-5.57Z" fill="#d1d3d4"></path><path d="M293,116.09,296.59,145c2.16,17.51,3.64,34.3-3.11,38.52s-65,4.37-65,4.37a45.21,45.21,0,0,0,.76-15s48-6.86,47.47-11.65-15.74-37.44-16-45.05S283.75,110.58,293,116.09Z" fill="#232946"></path><path d="M222.43,102.58s-32.15,26.18-31.92,21.23c.12-2.61-.58-28.44-.58-28.44l-20.07.88s-7.93,42.36-1,52.79c8.78,13.2,21.46,8.93,38.36-.92,21.64-12.62,27-18,27-18Z" fill="#232946"></path><path d="M229.2,172.89s-10,.42-11.33-1.47-3.49-4.24-4.77-4.47-16.94,1.57-16,3.2,7.71.23,7.71.23-5.88,1.5-5.61,3.46,1.63,1.75,3.88,1,7.68-2.06,7.68-2.06-8.31,3.85-8.44,5.84,3.88,1,9.53-2c0,0-6.58,4.14-4.54,5.36s6.83-1.3,6.83-1.3,2.26,3.65,5.31,4.56,9.4.83,9.4.83S231.86,179.33,229.2,172.89Z" fill="#fff"></path><path d="M228.45,186.55c-1.43,0-6.5-.06-9.19-.86s-4.64-3.38-5.34-4.39c-1.3.63-5,2.24-6.92,1.09a1.25,1.25,0,0,1-.64-1.06,3.61,3.61,0,0,1,1.29-2.19c-2.16.87-4.27,1.4-5.29.76a1.38,1.38,0,0,1-.6-1.3c.08-1.25,2.38-2.87,4.67-4.18-1.22.32-2.43.66-3.23.92-1.46.48-2.75.83-3.63.28a2.2,2.2,0,0,1-.92-1.7c-.14-1,.74-1.81,1.87-2.46-1.75.07-3.41-.14-3.92-1.06a.81.81,0,0,1,.07-.88c1.31-1.82,15.32-3.29,16.53-3.07,1.63.29,4,3.18,5.09,4.67.8,1.15,6.85,1.43,10.89,1.26a.51.51,0,0,1,.5.32c2.71,6.57-.27,13.27-.4,13.55a.51.51,0,0,1-.46.3Zm-14.35-6.43a.52.52,0,0,1,.44.25s2.2,3.5,5,4.33c2.54.76,7.56.82,8.91.82.52-1.33,2.41-6.8.39-12.1-2.34.08-10.08.2-11.41-1.7-1.56-2.22-3.51-4.09-4.44-4.26-1.55-.28-14,1.43-15.4,2.57.72.63,4.12.45,7.06-.15a.5.5,0,0,1,.6.38.51.51,0,0,1-.37.62c-2.19.56-5.37,1.87-5.23,2.89a1.28,1.28,0,0,0,.44,1c.51.32,1.7,0,2.77-.38,2.25-.74,7.49-2,7.72-2.07a.51.51,0,0,1,.33,1c-3.86,1.79-8.07,4.36-8.14,5.41,0,.26.08.32.13.36.56.36,3,.15,8.64-2.91a.52.52,0,0,1,.52.89c-2.26,1.43-4.7,3.48-4.69,4.3,0,.05,0,.11.14.19,1.47.88,5.07-.65,6.33-1.32A.53.53,0,0,1,214.1,180.12Z" fill="#231f20"></path><path d="M236.69,172.26a.51.51,0,0,1-.09-1l39.18-6.82a193.41,193.41,0,0,1-6.5-20.73c-3.94-15.77-4.54-27.75-1.79-35.62a.5.5,0,0,1,.65-.32.52.52,0,0,1,.32.66c-6.4,18.35,8.36,55.85,8.51,56.22a.49.49,0,0,1,0,.44.53.53,0,0,1-.36.26l-39.8,6.93Z" fill="#231f20"></path><path d="M211.54,233.35a.51.51,0,0,1-.51-.51v-10.7a.52.52,0,1,1,1,0v10.7A.51.51,0,0,1,211.54,233.35Z" fill="#231f20"></path><path d="M225.49,156.27a.51.51,0,0,1-.51-.49c-.35-7.24-2.3-12.89-4-17.88a40.49,40.49,0,0,1-2.45-9.15c-.07-.71-.14-1.39-.2-2-.56-5.58-1-10,2.31-19.9a.52.52,0,0,1,.65-.33.51.51,0,0,1,.32.65c-3.23,9.71-2.82,13.81-2.25,19.48.06.66.13,1.34.19,2.05a39.82,39.82,0,0,0,2.4,8.91c1.75,5.06,3.73,10.78,4.08,18.17a.52.52,0,0,1-.49.54Z" fill="#231f20"></path><ellipse cx="254.61" cy="203.19" rx="16.44" ry="4.95" fill="#fff"></ellipse><path d="M254.61,208.66c-8.22,0-17-1.92-17-5.47s8.74-5.46,17-5.46,17,1.91,17,5.46S262.84,208.66,254.61,208.66Zm0-9.9c-9.38,0-15.93,2.33-15.93,4.43s6.55,4.44,15.93,4.44,15.93-2.34,15.93-4.44S264,198.76,254.61,198.76Z" fill="#231f20"></path><path d="M242.22,189.73l-.4.07a4.84,4.84,0,0,0-3,1.71,4.2,4.2,0,0,0-.1,4.44c1.74,3.15,6,4,9.27,4.33a3,3,0,0,0,1.38-.11,1.15,1.15,0,0,0,.77-1.06,1.13,1.13,0,0,0-.64-.88,3.33,3.33,0,0,0-1.09-.3,20.88,20.88,0,0,1-6-1.53c-1.09-.55-2.61-1.81-1.82-3.16a2.62,2.62,0,0,1,1.15-1c1.87-.89,3.65-.22,5.5.33a1,1,0,0,0,.42.06c.36,0,.56-.47.53-.83-.06-.81-.86-1.34-1.62-1.63A8.43,8.43,0,0,0,242.22,189.73Z" fill="#fff"></path><path d="M248.51,200.82a5.88,5.88,0,0,1-.6,0c-5.06-.48-8.23-2-9.67-4.59a4.7,4.7,0,0,1,.13-5,5.48,5.48,0,0,1,3.35-1.91l.42-.07h0a9,9,0,0,1,4.55.49c1.19.46,1.88,1.19,1.95,2.07a1.25,1.25,0,0,1-1,1.39,1.72,1.72,0,0,1-.64-.08l-.48-.15c-1.6-.48-3.11-.94-4.64-.21a2,2,0,0,0-.93.77,1,1,0,0,0-.11.79,3.4,3.4,0,0,0,1.71,1.65,17.42,17.42,0,0,0,5.14,1.36l.76.12a3.6,3.6,0,0,1,1.25.36,1.53,1.53,0,0,1-.19,2.87A2.8,2.8,0,0,1,248.51,200.82Zm-6.21-10.58-.38.06a4.42,4.42,0,0,0-2.72,1.51,3.67,3.67,0,0,0-.06,3.89c1.27,2.29,4.17,3.62,8.87,4.06a2.57,2.57,0,0,0,1.14-.07.51.51,0,0,0,.08-1,3,3,0,0,0-.93-.26l-.75-.12a18.25,18.25,0,0,1-5.45-1.45,4.44,4.44,0,0,1-2.23-2.28,2,2,0,0,1,.21-1.6,3,3,0,0,1,1.37-1.19c1.89-.9,3.67-.36,5.39.16l.48.15a.88.88,0,0,0,.2,0,.36.36,0,0,0,.09-.28c-.05-.64-.92-1-1.29-1.19a8,8,0,0,0-4-.43Z" fill="#231f20"></path><path d="M243.75,186.36s3.08,15.36,3.33,16.28,8.43,3.3,13.32,1l5.07-15.7Z" fill="#fff"></path><path d="M255.26,205.13a20.51,20.51,0,0,1-7.59-1.43c-.66-.31-1-.6-1.08-.93-.25-.93-3.22-15.69-3.34-16.31a.53.53,0,0,1,.12-.45.51.51,0,0,1,.42-.17l21.72,1.58a.51.51,0,0,1,.45.67l-5.06,15.7a.54.54,0,0,1-.28.31A12.66,12.66,0,0,1,255.26,205.13Zm-10.87-18.21c1.1,5.45,3,14.9,3.19,15.58.53.62,7.74,2.8,12.4.76l4.8-14.86Z" fill="#231f20"></path><ellipse cx="254.64" cy="186.8" rx="4.71" ry="10.89" transform="translate(57.56 433.57) rotate(-87.65)" fill="#231f20"></ellipse><path d="M255.5,192l-1.08,0a20.5,20.5,0,0,1-7.83-1.74c-2.21-1.07-3.39-2.47-3.33-3.94s1.35-2.76,3.64-3.64a22.6,22.6,0,0,1,15.79.65c2.21,1.06,3.39,2.46,3.33,3.93C265.91,190,261.37,192,255.5,192Zm-1.72-9.46a18.53,18.53,0,0,0-6.52,1.05c-1.87.72-3,1.72-3,2.76s1,2.12,2.77,3a19.46,19.46,0,0,0,7.45,1.64c6.21.26,10.47-1.75,10.56-3.78l.49,0-.49,0c0-1-1-2.13-2.77-3a19.5,19.5,0,0,0-7.45-1.65Z" fill="#231f20"></path><path d="M241.81,47.69s-10.57.37-13.67,5.48-2.68,12.67-6.67,17.58-8.88,15.43-6.35,20.82,28.84,6.82,42.62.57,14.47-17.42,13.43-24.52S265.09,41.24,241.81,47.69Z" fill="#fff"></path><path d="M234.48,96.75q-1.14,0-2.28,0c-7.45-.21-16-1.62-17.53-4.93-2.58-5.49,2.15-16.11,6.41-21.35,2.13-2.63,3-6.11,3.81-9.49a28.56,28.56,0,0,1,2.82-8c3.11-5.14,13.06-5.69,14-5.73,7.94-2.19,14.55-1.61,19.65,1.71,7.55,4.93,9.71,14.68,10.29,18.65,1.17,8-.26,18.93-13.73,25C252.11,95.24,243.48,96.75,234.48,96.75Zm16-49.86a32.41,32.41,0,0,0-8.58,1.28l-.11,0c-.11,0-10.34.42-13.27,5.24a27.44,27.44,0,0,0-2.7,7.76c-.85,3.48-1.74,7.08-4,9.87-4.18,5.16-8.59,15.37-6.27,20.3,2.23,4.75,27.88,6.7,41.95.32,12.9-5.85,14.27-16.27,13.15-24-.56-3.83-2.64-13.24-9.85-17.95A18.46,18.46,0,0,0,250.52,46.89Zm-8.71.8h0Z" fill="#231f20"></path><path d="M260.63,106.71s-8.59,21-15.74,20.42S238,110.92,238,110.92Z" fill="#231f20"></path><path d="M245.18,127.64h-.33c-7.52-.61-7.4-16.06-7.39-16.71a.48.48,0,0,1,.4-.48l22.68-4.22a.47.47,0,0,1,.47.17.5.5,0,0,1,.08.51C260.74,107.76,252.52,127.64,245.18,127.64Zm-6.73-16.3c0,2.42.5,14.81,6.48,15.3,5.31.44,12.22-13,14.88-19.27Z" fill="#231f20"></path><path d="M239.88,96.31,238,110.92s2.41,6,12.23,5.07c6.06-.6,10.45-9.28,10.45-9.28l1.94-28.65S249,70.56,241.15,57.58c0,0-6.46,10.66-11.18,9.62,0,0-1.53,14.39.18,21.71S239.88,96.31,239.88,96.31Z" fill="#fff"></path><path d="M248.08,116.59c-8.3,0-10.49-5.24-10.59-5.48a.54.54,0,0,1,0-.25l1.85-14.09c-1.91-.18-8.15-1.29-9.65-7.75-1.71-7.32-.25-21.29-.18-21.88a.49.49,0,0,1,.2-.35.52.52,0,0,1,.4-.08c3.6.8,8.9-6.51,10.64-9.39a.52.52,0,0,1,.86,0c7.71,12.71,21.1,20.23,21.23,20.3a.52.52,0,0,1,.26.47l-1.94,28.65a.53.53,0,0,1-.06.19c-.18.37-4.58,8.94-10.84,9.55A20.51,20.51,0,0,1,248.08,116.59Zm-9.61-5.74c.38.82,3,5.49,11.66,4.64,5.4-.53,9.53-8,10-8.92l1.92-28.23c-1.95-1.14-13.63-8.3-20.9-19.81-1.5,2.29-6.51,9.47-10.73,9.23-.25,2.62-1.27,14.65.21,21,1.6,6.84,8.94,7,9.25,7a.5.5,0,0,1,.49.57Z" fill="#231f20"></path><path d="M238.87,104a10.35,10.35,0,0,0,9-3.46c3.91-4.37,3-5.16,3-5.16a25.58,25.58,0,0,1-11,.94Z" fill="#231f20"></path><path d="M240.07,104.58a7.43,7.43,0,0,1-1.29-.1.5.5,0,0,1-.41-.55l1-7.68a.49.49,0,0,1,.56-.43,25.19,25.19,0,0,0,10.79-.92.52.52,0,0,1,.51.1c.14.13.43.52.09,1.48a15.93,15.93,0,0,1-3.08,4.38A10.88,10.88,0,0,1,240.07,104.58Zm-.64-1a9.84,9.84,0,0,0,8.07-3.36c2.1-2.35,2.73-3.58,2.92-4.15a26.76,26.76,0,0,1-10.11.81Z" fill="#231f20"></path><path d="M243.14,73.13s-4.73,7.7-3.49,9,4.55.27,4.55.27" fill="#fff"></path><path d="M241.74,83.22a3.41,3.41,0,0,1-2.44-.78c-1.37-1.39,1.93-7.15,3.41-9.57a.5.5,0,1,1,.85.53c-2.41,3.92-4.07,7.81-3.55,8.33.84.85,3.21.39,4.05.14a.5.5,0,0,1,.62.33.51.51,0,0,1-.33.63A10.29,10.29,0,0,1,241.74,83.22Z" fill="#231f20"></path><ellipse cx="249.16" cy="72.37" rx="1.24" ry="1.75" transform="translate(-7.04 31.41) rotate(-7.11)" fill="#231f20"></ellipse><ellipse cx="237.42" cy="72.89" rx="1.75" ry="1.24" transform="translate(124.34 294.01) rotate(-79.98)" fill="#231f20"></ellipse><path d="M242.73,89a6.45,6.45,0,0,1-6.17-3.81.48.48,0,0,1,.06-.46.49.49,0,0,1,.41-.21c11.35,0,11.41.06,11.6.27a.48.48,0,0,1,.13.39.42.42,0,0,1-.09.24c-.1.14-2.45,3.36-5.28,3.56Zm-4.88-3.48A5.62,5.62,0,0,0,243.32,88c1.61-.11,3.12-1.51,3.93-2.4C245.38,85.56,241.07,85.54,237.85,85.54Zm10.42-.39Zm0,0Z" fill="#231f20"></path><path d="M264.27,73.21s3.91-16.78-3.35-23.29-19.11-2.23-19.11-2.23,13.32-.83,16.07,5.19.54,23.17.54,23.17Z" fill="#fff"></path><path d="M258.42,76.55a.47.47,0,0,1-.3-.1.51.51,0,0,1-.2-.47c0-.17,2.16-17.09-.49-22.9-2.58-5.63-15.46-4.9-15.59-4.9a.49.49,0,0,1-.52-.39.49.49,0,0,1,.32-.57c.49-.18,12.23-4.32,19.62,2.32s3.66,23.08,3.49,23.78a.5.5,0,0,1-.26.34l-5.86,2.84A.5.5,0,0,1,258.42,76.55ZM245.83,47.21c4.27.25,10.62,1.34,12.51,5.46,2.43,5.33,1.1,18.85.68,22.53l4.81-2.34c.43-2,3.26-16.74-3.24-22.57C256.16,46.31,249.84,46.52,245.83,47.21Zm18.44,26h0Z" fill="#231f20"></path><ellipse cx="261.77" cy="77.8" rx="9.75" ry="7.33" transform="matrix(0.19, -0.98, 0.98, 0.19, 136.3, 320.35)" fill="#fff"></ellipse><path d="M261,88a6.17,6.17,0,0,1-1.13-.1c-4.25-.81-6.84-6-5.78-11.54a12,12,0,0,1,3.56-6.64,7,7,0,0,1,6.06-2c4.24.81,6.83,6,5.77,11.54h0C268.5,84.32,264.83,88,261,88Zm1.56-19.35a6.37,6.37,0,0,0-4.24,1.81,11,11,0,0,0-3.24,6.09c-1,5,1.27,9.66,5,10.36s7.49-2.79,8.45-7.8h0c.95-5-1.28-9.66-5-10.36A4.47,4.47,0,0,0,262.54,68.62Z" fill="#231f20"></path><path d="M247.65,93.07a.5.5,0,0,1,0-1c3.55-.19,9.59-.95,10.63-2.2,1.2-1.46,2-6.13,2.18-7.8a.5.5,0,1,1,1,.12c0,.26-.77,6.33-2.42,8.31S248.67,93,247.68,93.07Z" fill="#231f20"></path><rect x="244.31" y="91.04" width="8.26" height="2.77" rx="1.39" transform="translate(-7.3 22.7) rotate(-5.16)" fill="#fff"></rect><path d="M245.7,94.56a1.89,1.89,0,0,1-1.87-1.72,1.87,1.87,0,0,1,1.7-2l5.47-.5a1.91,1.91,0,0,1,1.38.43,1.89,1.89,0,0,1-1,3.33h0l-5.47.49Zm5.6-1h0Zm-.12-2.26h-.09l-5.47.49a.9.9,0,0,0-.8,1,.87.87,0,0,0,.32.6.83.83,0,0,0,.64.21l5.47-.5a.89.89,0,0,0,.81-1,.94.94,0,0,0-.32-.6A.89.89,0,0,0,251.18,91.3Z" fill="#231f20"></path><path d="M120.74,52.56c-16.15,0-29.25,9.73-29.25,21.72,0,7.07,4.55,13.35,11.59,17.31l6.54,9.26V94.37A38,38,0,0,0,120.74,96C136.89,96,150,86.28,150,74.28S136.89,52.56,120.74,52.56Z" fill="#fff"></path><path d="M109.62,101.35a.49.49,0,0,1-.41-.21L102.73,92C95.27,87.73,91,81.29,91,74.28,91,62,104.34,52.06,120.74,52.06s29.74,10,29.74,22.22S137.14,96.5,120.74,96.5A38.58,38.58,0,0,1,110.12,95v5.81a.5.5,0,0,1-.35.48A.39.39,0,0,1,109.62,101.35Zm11.12-48.29C104.89,53.06,92,62.58,92,74.28,92,81,96.12,87.1,103.32,91.16a.46.46,0,0,1,.17.14l5.63,8V94.37a.51.51,0,0,1,.2-.4.55.55,0,0,1,.45-.08,37.38,37.38,0,0,0,11,1.61c15.85,0,28.74-9.52,28.74-21.22S136.59,53.06,120.74,53.06Z" fill="#d1d3d4"></path><circle cx="106.7" cy="74.25" r="2.5" fill="#d1d3d4"></circle><circle cx="120.74" cy="74.25" r="2.5" fill="#d1d3d4"></circle><circle cx="134.77" cy="74.25" r="2.5" fill="#d1d3d4"></circle><path d="M300,134.92h-.05a.53.53,0,0,1-.47-.56c2-23.21,9.95-31.5,10.28-31.84a.52.52,0,0,1,.74.72c-.08.08-8,8.43-10,31.21A.51.51,0,0,1,300,134.92Z" fill="#fff"></path></g></svg>