<svg id="Layer_1" data-name="Layer 1" xmlns="http://www.w3.org/2000/svg" viewBox="0 0 400 300" width="406" height="306" class="illustration styles_illustrationTablet__1DWOa"><title>#37 digital nomad</title><path d="M180,82.68a11.57,11.57,0,0,1,19.49,5.42c1.73,7.48.78,18.42-8.79,33.21-20.62,31.84-33.67,64.5-74,22.31l7.23-7.23s21.07,18.14,30.27,1.53C161.63,124.53,166,96.62,180,82.68Z" fill="#232946"></path><path d="M180,82.68a11.57,11.57,0,0,1,19.49,5.42c1.73,7.48.78,18.42-8.79,33.21-20.62,31.84-33.67,64.5-74,22.31l7.23-7.23s21.07,18.14,30.27,1.53C161.63,124.53,166,96.62,180,82.68Z" fill="#fff" opacity="0.2"></path><ellipse cx="202.57" cy="244.15" rx="132.1" ry="20.85" fill="#e6e6e6" opacity="0.45"></ellipse><path d="M290.38,229.16s-10.88-2.92-13.29-13c0,0,16.82-3.47,17.37,13.9Z" fill="#232946" opacity="0.58"></path><path d="M291.7,228.08s-7.64-12-1-23.22c0,0,12.84,8.08,7.21,23.22Z" fill="#232946" opacity="0.73"></path><path d="M293.66,228.08s4-12.69,16.07-15.14c0,0,2.31,8.22-7.79,15.14Z" fill="#232946"></path><polygon points="285.78 227.83 288.04 242.89 301.91 242.89 303.9 227.83 285.78 227.83" fill="#24285b"></polygon><path d="M195.21,50.14s.45,6.7,2.24,10.92a3.37,3.37,0,0,0,4.44,1.78c2.12-.94,4.7-2.81,4.9-6.43l1.09-6.1a6,6,0,0,0-3.61-6C200.12,42.23,194.74,46.07,195.21,50.14Z" fill="#f4a28c"></path><polygon points="206.97 51.29 220.8 73.25 208.04 76.77 204.5 61.17 206.97 51.29" fill="#f4a28c"></polygon><path d="M195.71,54.35l-1.45,2.84a1.07,1.07,0,0,0,.92,1.56l2.61.09Z" fill="#f4a28c"></path><path d="M204.5,61.17s2.28-1.63,2.48-5.68c0,0,4.49,5.19-1.42,10.38Z" fill="#ce8172" opacity="0.31"></path><path d="M251.9,191s73.77-99.65,0-120.06c-26.9-7.45-67.84,3-51.72,99Z" fill="#c9c9c9"></path><polygon points="228.76 199.32 238.41 243.73 245.03 243.73 237.36 196.32 228.76 199.32" fill="#e6e6e6"></polygon><polygon points="182.78 196.4 173.13 240.81 166.51 240.81 174.18 193.41 182.78 196.4" fill="#e6e6e6"></polygon><path d="M251.9,191c-2.54,7-13.58,18.32-18.9,18.05-18.32-.92-56.84-9.74-56.84-9.74a9.65,9.65,0,0,1-9.65-9.65l2.71-2.9c0-5.32,8-5.4,13.35-5.4h59.68A9.64,9.64,0,0,1,251.9,191Z" fill="#c9c9c9"></path><path d="M175.31,98.87A23,23,0,0,1,192.24,76c11.67-3.21,36.38-5.42,52.79-1.16,30,7.79,12.44,83.61-12.56,106.52l-56.22-8.6s10.85-30,3.53-49C176.6,115.47,175.52,106.43,175.31,98.87Z" fill="#232946"></path><path d="M195.21,50.14,195,48.6a14.54,14.54,0,0,0-3.36-7.1,3,3,0,0,1-.54-2.68c.75-3.46,2.92,1.07,5.53-2s2.42-4.6,5.41-4.09-1.57,4.42,2.26,4,5.31-4,6.34-.84a5,5,0,0,1,.28,2,2.62,2.62,0,0,0,1.5,2.57c1,.48,1.59,1.26.79,2.51-1.79,2.77-4,3.26-4.7,11.22l-3.22-.62s.14-6-2.61-7.17S195,47.54,195.21,50.14Z" fill="#ffd200"></path><path d="M238.35,83.12S223.84,89,226,109c1.46,13.7,18.95,58.27-24.9,45.51l-.89,16.74,21.88,8.53,10.41,1.57,3.66-3.79L255,150.74l-5.75-34.5Z" opacity="0.08"></path><polygon points="151.29 126.78 205.2 131.08 206.51 170.41 222.8 176.75 221.46 182.23 157.14 175.08 151.29 126.78" fill="#ffd200"></polygon><circle cx="178.35" cy="148.96" r="4.96" fill="#fff"></circle><path d="M190.14,231.59s-1.69,4.7-5.94,5.06-5.36,4.51-1.54,5.6,13.67-3.83,13.67-3.83l-.28-6.13Z" fill="#232946"></path><path d="M232.47,181.34l-23.41-3.53a22.4,22.4,0,0,0-25.63,24.44l3,29.75H198l-1-27.85a10.55,10.55,0,0,1,12.2-10.8C219.14,195,231.49,194.27,232.47,181.34Z" fill="#24285b"></path><path d="M166.31,231.59s-1.69,4.7-5.94,5.06-5.36,4.51-1.54,5.6,13.67-3.83,13.67-3.83l-.28-6.13Z" fill="#232946"></path><path d="M208.64,181.34l-23.41-3.53a22.4,22.4,0,0,0-25.63,24.44L162.66,232h11.48l-1-27.85a10.55,10.55,0,0,1,12.2-10.8C195.31,195,207.66,194.27,208.64,181.34Z" fill="#24285b"></path><path d="M235.53,88.93a11.58,11.58,0,0,1,19.08-6.75c5.71,5.13,11.21,14.63,11.86,32.23,1.4,37.92,9.46,72.15-47.77,60.74l1.77-10.07s27.67,2.76,25.67-16.12C244.52,133.74,232.09,108.36,235.53,88.93Z" fill="#232946"></path><path d="M235.53,88.93a11.58,11.58,0,0,1,19.08-6.75c5.71,5.13,11.21,14.63,11.86,32.23,1.4,37.92,9.46,72.15-47.77,60.74l1.77-10.07s27.67,2.76,25.67-16.12C244.52,133.74,232.09,108.36,235.53,88.93Z" fill="#fff" opacity="0.2"></path><path d="M220.21,166.56s-11.76-5-13.7,3.85l12.19,4.74Z" fill="#f4a28c"></path><path d="M204.07,53.68s-.35-2.56,1.6-2.66,2.48,3.6-.08,4.34Z" fill="#f4a28c"></path><path d="M202.29,74s-1.7-4.47,6.32-5.9,14.86-2.39,16.61,4.4" fill="#232946"></path><path d="M202.29,74s-1.7-4.47,6.32-5.9,14.86-2.39,16.61,4.4" fill="#fff" opacity="0.2"></path><path d="M206,155.75s-27.67,0-50.08,9.41l1.2,9.92,64.31,7.15,1.35-5.49-16.29-6.33Z" opacity="0.08"></path><path d="M102.68,146.26H97.14v-3h5.54a5.29,5.29,0,0,0,0-10.58H97.14v-3h5.54a8.29,8.29,0,0,1,0,16.58Z" fill="#ffd200"></path><path d="M122.78,137.55s-2.31-7.09-11.31-5.32-6.84,15.12,5.24,11.39Z" fill="#f4a28c"></path><rect x="82.74" y="125.22" width="18.33" height="24.88" fill="#24285b"></rect><path d="M98.22,125.22s4.83-6-1.08-8.23-10.42,5.5-12.92-2.5S87,100.24,76,100s-17.25,13.25-19.75,0-11-16.5-21.5-14.25-17,41.82,4,41,26-14.86,29.75-5.32,14.27,3.76,14.27,3.76Z" fill="#e6e6e6" opacity="0.45"></path><circle cx="122.78" cy="54.11" r="26.42" fill="#e6e6e6"></circle><circle cx="122.78" cy="54.11" r="17.77" fill="#f2f2f2"></circle><path d="M127.69,59.27A1,1,0,0,1,127,59l-4.91-4.17a1,1,0,0,1-.35-.76V41.81a1,1,0,0,1,2,0V53.65l4.56,3.86a1,1,0,0,1-.65,1.76Z" fill="#a5a5a5"></path></svg>