<svg xmlns="http://www.w3.org/2000/svg" viewBox="0 0 400 300" width="406" height="306" class="illustration styles_illustrationTablet__1DWOa"><g id="_215_iphone_outline" data-name="#215_iphone_outline"><rect x="110.95" y="67.77" width="81.26" height="164.45" rx="10.08" fill="#fff"></rect><path d="M182.13,233.23H121A11.09,11.09,0,0,1,110,222.15V77.85A11.09,11.09,0,0,1,121,66.77h61.1a11.09,11.09,0,0,1,11.08,11.08v144.3A11.09,11.09,0,0,1,182.13,233.23ZM121,68.77A9.1,9.1,0,0,0,112,77.85v144.3a9.1,9.1,0,0,0,9.08,9.08h61.1a9.09,9.09,0,0,0,9.08-9.08V77.85a9.09,9.09,0,0,0-9.08-9.08Z" fill="#093f68"></path><path d="M187.2,80.73V219.26a7.32,7.32,0,0,1-7.32,7.32h-56.6a7.32,7.32,0,0,1-7.32-7.32V80.73a7.32,7.32,0,0,1,7.32-7.32h9.62v1.15A4.11,4.11,0,0,0,137,78.67h29.14a4.11,4.11,0,0,0,4.11-4.11V73.41h9.62A7.32,7.32,0,0,1,187.2,80.73Z" fill="#232946"></path><path d="M179.88,227.58h-56.6a8.33,8.33,0,0,1-8.32-8.32V80.73a8.33,8.33,0,0,1,8.32-8.32h9.62a1,1,0,0,1,1,1v1.15A3.11,3.11,0,0,0,137,77.67h29.14a3.11,3.11,0,0,0,3.11-3.11V73.41a1,1,0,0,1,1-1h9.62a8.33,8.33,0,0,1,8.32,8.32V219.26A8.33,8.33,0,0,1,179.88,227.58ZM123.28,74.41A6.33,6.33,0,0,0,117,80.73V219.26a6.32,6.32,0,0,0,6.32,6.32h56.6a6.33,6.33,0,0,0,6.32-6.32V80.73a6.33,6.33,0,0,0-6.32-6.32h-8.62v.15a5.11,5.11,0,0,1-5.11,5.11H137a5.11,5.11,0,0,1-5.11-5.11v-.15Z" fill="#093f68"></path><path d="M153.69,75.08H142.05a1,1,0,0,1,0-2h11.64a1,1,0,0,1,0,2Z" fill="#fff"></path><circle cx="160.12" cy="74.08" r="1.92" fill="#fff"></circle><rect x="207.79" y="67.77" width="81.26" height="164.45" rx="10.08" fill="#fff"></rect><path d="M279,233.23h-61.1a11.09,11.09,0,0,1-11.08-11.08V77.85a11.09,11.09,0,0,1,11.08-11.08H279a11.09,11.09,0,0,1,11.08,11.08v144.3A11.09,11.09,0,0,1,279,233.23ZM217.87,68.77a9.09,9.09,0,0,0-9.08,9.08v144.3a9.09,9.09,0,0,0,9.08,9.08H279a9.1,9.1,0,0,0,9.08-9.08V77.85A9.1,9.1,0,0,0,279,68.77Z" fill="#093f68"></path><rect x="214.58" y="77.91" width="27.5" height="27.17" rx="3.57" fill="#232946"></rect><path d="M238.51,106.08H218.15a4.57,4.57,0,0,1-4.57-4.56v-20a4.58,4.58,0,0,1,4.57-4.57h20.36a4.58,4.58,0,0,1,4.57,4.57v20A4.57,4.57,0,0,1,238.51,106.08ZM218.15,78.91a2.58,2.58,0,0,0-2.57,2.57v20a2.57,2.57,0,0,0,2.57,2.56h20.36a2.57,2.57,0,0,0,2.57-2.56v-20a2.58,2.58,0,0,0-2.57-2.57Z" fill="#093f68"></path><circle cx="222.9" cy="85.73" r="4.1" fill="#093f68"></circle><path d="M222.9,90.82a5.1,5.1,0,1,1,5.1-5.09A5.1,5.1,0,0,1,222.9,90.82Zm0-8.19a3.1,3.1,0,1,0,3.1,3.1A3.1,3.1,0,0,0,222.9,82.63Z" fill="#093f68"></path><path d="M220.2,86.76a.51.51,0,0,1-.5-.5,3.67,3.67,0,0,1,3.67-3.67.5.5,0,0,1,.5.5.5.5,0,0,1-.5.5,2.67,2.67,0,0,0-2.67,2.67A.5.5,0,0,1,220.2,86.76Z" fill="#fff"></path><circle cx="222.9" cy="97.27" r="4.1" fill="#093f68"></circle><path d="M222.9,102.37a5.1,5.1,0,1,1,5.1-5.1A5.11,5.11,0,0,1,222.9,102.37Zm0-8.19a3.1,3.1,0,1,0,3.1,3.09A3.1,3.1,0,0,0,222.9,94.18Z" fill="#093f68"></path><path d="M220.2,98.17a.51.51,0,0,1-.5-.5A3.67,3.67,0,0,1,223.37,94a.5.5,0,0,1,.5.5.5.5,0,0,1-.5.5,2.68,2.68,0,0,0-2.67,2.67A.5.5,0,0,1,220.2,98.17Z" fill="#fff"></path><path d="M233.71,94.65a3.77,3.77,0,1,1,3.76-3.77A3.76,3.76,0,0,1,233.71,94.65Zm0-5.53a1.77,1.77,0,1,0,1.76,1.76A1.76,1.76,0,0,0,233.71,89.12Z" fill="#093f68"></path><circle cx="233.71" cy="84.39" r="0.99" fill="#093f68"></circle><path d="M126.86,152.27a1,1,0,0,1-.74-.33,1,1,0,0,1,.07-1.41l47.19-42.66a1,1,0,0,1,1.34,1.48L127.53,152A1,1,0,0,1,126.86,152.27Z" fill="#fff"></path><path d="M125.06,183.22a1,1,0,0,1-.74-.32,1,1,0,0,1,.07-1.42l40.54-36.79a1,1,0,0,1,1.35,1.48L125.73,183A1,1,0,0,1,125.06,183.22Z" fill="#fff"></path><path d="M144.54,205.13a1,1,0,0,1-.75-.34,1,1,0,0,1,.09-1.41l36.65-32a1,1,0,1,1,1.32,1.5l-36.65,32A1,1,0,0,1,144.54,205.13Z" fill="#fff"></path><path d="M130.13,111.22a1,1,0,0,1-.72-.31,1,1,0,0,1,0-1.42l13.14-12.55A1,1,0,0,1,144,97a1,1,0,0,1,0,1.41l-13.13,12.55A1.05,1.05,0,0,1,130.13,111.22Z" fill="#fff"></path></g></svg>