<svg id="Layer_1" data-name="Layer 1" xmlns="http://www.w3.org/2000/svg" viewBox="0 0 1080 510.07"><defs><style>.cls-1{fill:#fff;}.cls-2{fill:#f27a21;}</style></defs><path class="cls-1" d="M1539.67,745V846.6H868.37l-.11.15-17.88,25.54-53.17,75.94h.45l-71.2,101.62H726L655.2,1151l-.31.43h.36L584.1,1253l-.05.07H459.67l71.16-101.64L602,1049.85l71.16-101.62,53.17-75.94,17.88-25.54.11-.15,53.08-75.81,5.53-7.91,0,0A50.71,50.71,0,0,1,841.64,745Z" transform="translate(-459.67 -744.96)"/><path class="cls-2" d="M1199.73,1000.32a25.75,25.75,0,0,0,25,25.74h.81a25.82,25.82,0,0,0,6.44-.8h179.6A114.29,114.29,0,1,1,1425.08,1253H1039.49a132.87,132.87,0,0,0,54.23-96.59h330.56a26.55,26.55,0,1,0-6.51-52.31H1239a111.36,111.36,0,0,1-13.5.8,112.67,112.67,0,1,1,0-225.33h314.18v95H1225.49A25.75,25.75,0,0,0,1199.73,1000.32Z" transform="translate(-459.67 -744.96)"/><path class="cls-1" d="M1063.67,878v266.5c0,3.52-.16,7-.49,10.41a.28.28,0,0,1,0,.09,110.53,110.53,0,0,1-101.5,99.67c-2.8.22-5.64.33-8.5.33H800.1l71.15-101.57h-.36l.31-.43h78.47a12,12,0,0,0,12-12V878Z" transform="translate(-459.67 -744.96)"/><polygon class="cls-1" points="367.58 406.51 296.43 508.07 172.05 508.07 243.16 406.51 243.47 406.07 367.53 406.07 367.22 406.51 367.58 406.51"/></svg>