<svg width="64" height="64" viewBox="0 0 64 64" fill="none" xmlns="http://www.w3.org/2000/svg">
    <path d="M50.6667 10.6665H13.3333C11.2116 10.6665 9.17677 11.5094 7.67648 13.0096C6.17619 14.5099 5.33333 16.5448 5.33333 18.6665V45.3332C5.33333 47.4549 6.17619 49.4897 7.67648 50.99C9.17677 52.4903 11.2116 53.3332 13.3333 53.3332H50.6667C52.7884 53.3332 54.8232 52.4903 56.3235 50.99C57.8238 49.4897 58.6667 47.4549 58.6667 45.3332V18.6665C58.6667 16.5448 57.8238 14.5099 56.3235 13.0096C54.8232 11.5094 52.7884 10.6665 50.6667 10.6665ZM49.5733 15.9998L33.8933 31.6798C33.6454 31.9298 33.3505 32.1282 33.0255 32.2635C32.7006 32.3989 32.352 32.4686 32 32.4686C31.648 32.4686 31.2994 32.3989 30.9745 32.2635C30.6495 32.1282 30.3546 31.9298 30.1067 31.6798L14.4267 15.9998H49.5733ZM53.3333 45.3332C53.3333 46.0404 53.0524 46.7187 52.5523 47.2188C52.0522 47.7189 51.3739 47.9998 50.6667 47.9998H13.3333C12.6261 47.9998 11.9478 47.7189 11.4477 47.2188C10.9476 46.7187 10.6667 46.0404 10.6667 45.3332V19.7598L26.3467 35.4398C27.8467 36.938 29.88 37.7795 32 37.7795C34.12 37.7795 36.1533 36.938 37.6533 35.4398L53.3333 19.7598V45.3332Z" fill="#232946"/>
    </svg>
    