<svg width="64" height="64" viewBox="0 0 64 64" fill="none" xmlns="http://www.w3.org/2000/svg">
    <path d="M32 5.3335C26.342 5.3335 20.9158 7.58111 16.915 11.5819C12.9143 15.5827 10.6667 21.0089 10.6667 26.6668C10.6667 41.0668 29.4667 57.3335 30.2667 58.0268C30.7497 58.44 31.3644 58.667 32 58.667C32.6356 58.667 33.2503 58.44 33.7333 58.0268C34.6667 57.3335 53.3333 41.0668 53.3333 26.6668C53.3333 21.0089 51.0857 15.5827 47.0849 11.5819C43.0842 7.58111 37.6579 5.3335 32 5.3335ZM32 52.4002C26.32 47.0668 16 35.5735 16 26.6668C16 22.4234 17.6857 18.3537 20.6863 15.3531C23.6869 12.3525 27.7565 10.6668 32 10.6668C36.2435 10.6668 40.3131 12.3525 43.3137 15.3531C46.3143 18.3537 48 22.4234 48 26.6668C48 35.5735 37.68 47.0935 32 52.4002ZM32 16.0002C29.8903 16.0002 27.828 16.6258 26.0739 17.7978C24.3198 18.9699 22.9526 20.6358 22.1453 22.5849C21.3379 24.534 21.1267 26.6787 21.5383 28.7478C21.9499 30.8169 22.9658 32.7175 24.4575 34.2093C25.9493 35.7011 27.8499 36.717 29.919 37.1285C31.9882 37.5401 34.1329 37.3289 36.0819 36.5215C38.031 35.7142 39.6969 34.347 40.869 32.5929C42.0411 30.8388 42.6667 28.7765 42.6667 26.6668C42.6667 23.8379 41.5428 21.1247 39.5425 19.1244C37.5421 17.124 34.829 16.0002 32 16.0002ZM32 32.0002C30.9452 32.0002 29.914 31.6874 29.0369 31.1013C28.1599 30.5153 27.4763 29.6823 27.0726 28.7078C26.669 27.7333 26.5633 26.6609 26.7691 25.6263C26.9749 24.5918 27.4829 23.6415 28.2288 22.8956C28.9746 22.1497 29.9249 21.6418 30.9595 21.436C31.9941 21.2302 33.0664 21.3358 34.041 21.7395C35.0155 22.1431 35.8485 22.8267 36.4345 23.7038C37.0205 24.5809 37.3333 25.612 37.3333 26.6668C37.3333 28.0813 36.7714 29.4379 35.7712 30.4381C34.771 31.4383 33.4145 32.0002 32 32.0002Z" fill="black"/>
    </svg>
    