<svg xmlns="http://www.w3.org/2000/svg" xmlns:xlink="http://www.w3.org/1999/xlink" viewBox="0 0 400 300" width="406" height="306" class="illustration styles_illustrationTablet__1DWOa"><defs><linearGradient id="linear-gradient" x1="-48.96" y1="214.41" x2="-90.3" y2="236.68" gradientTransform="matrix(-1, 0, 0, 1, 160.62, 0)" gradientUnits="userSpaceOnUse"><stop offset="0" stop-color="#d4a397"></stop><stop offset="1" stop-color="#fff"></stop></linearGradient><linearGradient id="linear-gradient-2" x1="299.47" y1="247.63" x2="275.04" y2="212.09" gradientUnits="userSpaceOnUse"><stop offset="0" stop-color="#fff" stop-opacity="0"></stop><stop offset="0.99" stop-color="#754c24"></stop></linearGradient><linearGradient id="linear-gradient-3" x1="157.03" y1="170.33" x2="133.77" y2="136.5" xlink:href="#linear-gradient-2"></linearGradient><linearGradient id="linear-gradient-4" x1="74.96" y1="186.13" x2="59.41" y2="163.51" xlink:href="#linear-gradient-2"></linearGradient><linearGradient id="linear-gradient-5" x1="136.97" y1="151.57" x2="120.67" y2="127.86" xlink:href="#linear-gradient-2"></linearGradient><linearGradient id="linear-gradient-6" x1="287.12" y1="171.13" x2="273.11" y2="150.76" xlink:href="#linear-gradient-2"></linearGradient><linearGradient id="linear-gradient-7" x1="276.18" y1="229.6" x2="261.71" y2="208.56" xlink:href="#linear-gradient-2"></linearGradient></defs><title>141-150</title><g style="isolation: isolate;"><g id="Layer_2" data-name="Layer 2"><path d="M26.88,173c38.57,20.7,152,86.18,187.77,106.85a21.68,21.68,0,0,0,21.79,0l136-79.42c5.41-3.16,3.68-9.13-1.77-12.22L180.88,77.93a6.49,6.49,0,0,0-6.41,0L26.75,162A6.33,6.33,0,0,0,26.88,173Z" fill="#ed6128"></path><path d="M256.27,247.48l-37.1-22.75,10.51-7.4,38.09,25.62C264,244.76,260.07,245.9,256.27,247.48Z" fill="url(#linear-gradient)" style="mix-blend-mode: multiply;"></path><path d="M236.35,220c0,.14,2.9,6.75,3.55,7.17s2.66-.88,3.35-.15,1.57,2.29,0,2.94-6,1.26-6.86.91a14,14,0,0,1-2.24-1.51s-.43-3.55-.9-3.06-.3,4.31-.64,4.42a3.71,3.71,0,0,1-1.32-.19l.43-11.18" fill="#ff6161"></path><path d="M223.79,214c0,.14,3.14,6.65,3.81,7s2.63-1,3.34-.27,1.65,2.23.15,2.93-6,1.48-6.82,1.15a14,14,0,0,1-2.29-1.43s-.55-3.53-1-3-.15,4.32-.48,4.44a3.71,3.71,0,0,1-1.33-.14l0-11.19" fill="#ff6161"></path><path d="M234.84,159.21s9.24,47.34,8.48,58.34c0,0-1.83,7.33-17.72,4.89,0,0-1.37-5.5-.76-14.81s2.29-48.41,2.29-48.41Z" fill="#42210b"></path><path d="M233.16,215.16l-2.39-56.49-9.56-.89s-4.16,14.56-3.25,21.58-1.07,16.34-1.53,21.23c-.41,4.39-.58,12,.94,15.35A26.47,26.47,0,0,0,233.16,215.16Z" fill="#42210b"></path><path d="M224.93,219.76a94.47,94.47,0,0,1-1.6-10.73,38.18,38.18,0,0,1,0-5.29,51.53,51.53,0,0,1,.77-5.41,39.25,39.25,0,0,0,.44-9.72c-.25-3.33-.76-6.64-1.07-10a35.85,35.85,0,0,1,.36-11.23c.11-.48-.63-.68-.74-.2-1.48,6.64-.05,13.36.57,20a39.92,39.92,0,0,1-.19,10.32c-.28,1.67-.62,3.33-.8,5a35.21,35.21,0,0,0-.13,5.43,87.9,87.9,0,0,0,1.69,12C224.29,220.44,225,220.24,224.93,219.76Z" fill="#fff"></path><polyline points="222.43 245.7 253.4 263.74 347.28 207.04 317.83 189.98" opacity="0.63" fill="url(#linear-gradient-2)" style="mix-blend-mode: multiply;"></polyline><polyline points="84.96 167.61 109.43 181.87 201.26 132.57 180.36 111.89" opacity="0.63" fill="url(#linear-gradient-3)" style="mix-blend-mode: multiply;"></polyline><rect x="82.62" y="130.82" width="4.68" height="36.79" rx="2.34" ry="2.34" fill="#42210b"></rect><rect x="108.07" y="145.39" width="4.68" height="36.79" rx="2.34" ry="2.34" fill="#42210b"></rect><rect x="171.58" y="113.79" width="4.68" height="36.79" rx="2.34" ry="2.34" fill="#42210b"></rect><rect x="220.75" y="209.63" width="4.68" height="36.79" rx="2.34" ry="2.34" fill="#42210b"></rect><rect x="250.28" y="226.95" width="4.68" height="36.79" rx="2.34" ry="2.34" fill="#42210b"></rect><rect x="341.31" y="172.84" width="4.68" height="36.79" rx="2.34" ry="2.34" fill="#42210b"></rect><polygon points="345.83 175.23 345.83 178.53 344.27 179.77 343.66 176 345.83 175.23" fill="#f2cec9"></polygon><path d="M344.76,176.65,179.68,80a2.16,2.16,0,0,0-2.17,0l-93,53.84a2.92,2.92,0,0,0-.47.36l-1-1.33v3.4c0,.05,0,.11,0,.16v.17h0a2.89,2.89,0,0,0,1.38,2.3l24.49,15a5.07,5.07,0,0,0,5.13.09l58.57-33a2.16,2.16,0,0,1,2.12,0l102.13,57.37a2.16,2.16,0,0,1,0,3.74l-54.1,31.72-1.58-.94v3.54a3.1,3.1,0,0,0,0,.32v.46h.07a3,3,0,0,0,1.6,2.08l26.79,13.62a4.44,4.44,0,0,0,4.23-.11l90.79-52.42A2.16,2.16,0,0,0,344.76,176.65Z" fill="#232946"></path><path d="M344.76,176.65,179.68,80a2.16,2.16,0,0,0-2.17,0l-93,53.84a2.92,2.92,0,0,0-.47.36l-1-1.33v3.4c0,.05,0,.11,0,.16v.17h0a2.89,2.89,0,0,0,1.38,2.3l24.49,15a5.07,5.07,0,0,0,5.13.09l58.57-33a2.16,2.16,0,0,1,2.12,0l102.13,57.37a2.16,2.16,0,0,1,0,3.74l-54.1,31.72-1.58-.94v3.54a3.1,3.1,0,0,0,0,.32v.46h.07a3,3,0,0,0,1.6,2.08l26.79,13.62a4.44,4.44,0,0,0,4.23-.11l90.79-52.42A2.16,2.16,0,0,0,344.76,176.65Z" fill="#606060" opacity="0.61"></path><path d="M84.48,135.63l24.49,15a5.07,5.07,0,0,0,5.13.09l58.57-33a2.16,2.16,0,0,1,2.12,0l102.13,57.37a2.16,2.16,0,0,1,0,3.74l-54.17,31.76a3.09,3.09,0,0,0,.16,5.43l26.79,13.62a4.44,4.44,0,0,0,4.23-.11l90.79-52.42a2.16,2.16,0,0,0,0-3.73L179.68,76.75a2.16,2.16,0,0,0-2.17,0l-93,53.84A2.94,2.94,0,0,0,84.48,135.63Z" fill="#232946"></path><path d="M270.84,130.14V71.75l-9.09,2.74-.2,50.38C264.62,126.67,267.8,128.29,270.84,130.14Z" fill="#f7cf91"></path><path d="M270.84,130.14V71.75l-2.78.79v56Q269.46,129.3,270.84,130.14Z" fill="#deab7c"></path><polygon points="206.12 93.73 218.03 99.76 273.79 67.06 261.51 60.52 206.12 93.73" fill="#f7cf91"></polygon><polygon points="218.03 103.73 273.94 70.87 273.94 67.06 218.03 99.76 218.03 103.73" fill="#eda421"></polygon><polygon points="208.94 97.16 208.7 170.75 215.25 174.34 218.03 172.64 218.03 99.76 208.94 97.16" fill="#f7cf91"></polygon><polygon points="215.25 174.34 215.25 99.76 218.03 101.28 218.03 172.64 215.25 174.34" fill="#deab7c"></polygon><circle cx="216.26" cy="91.74" r="2.74" transform="translate(35.42 241.69) rotate(-62.65)" fill="#e05342"></circle><path d="M213.57,92.25s.23,1.41,2.69,1.48,2.64-1.23,2.64-1.23a2.37,2.37,0,0,1,.11,1.3c-.16.65-.91,1.4-2.74,1.4A3.22,3.22,0,0,1,213.57,94,2,2,0,0,1,213.57,92.25Z" fill="#3a3935"></path><circle cx="240.98" cy="73.54" r="4.96" transform="translate(64.96 253.81) rotate(-62.65)" fill="#e05342"></circle><path d="M236.13,74.46c0,.05.41,2.54,4.86,2.68,4.65.14,4.77-2.22,4.77-2.22a4.29,4.29,0,0,1,.19,2.36c-.29,1.18-1.64,2.54-5,2.54a5.82,5.82,0,0,1-4.86-2.27A3.55,3.55,0,0,1,236.13,74.46Z" fill="#3a3935"></path><circle cx="263.62" cy="64.81" r="2.74" transform="translate(84.95 269.2) rotate(-62.65)" fill="#f7cf91"></circle><path d="M260.94,65.32s.23,1.41,2.69,1.48,2.64-1.23,2.64-1.23a2.37,2.37,0,0,1,.11,1.3c-.16.65-.91,1.4-2.74,1.4A3.22,3.22,0,0,1,260.94,67,2,2,0,0,1,260.94,65.32Z" fill="#f7cf91"></path><polygon points="206.12 93.73 206.12 97.94 218.03 103.73 218.03 99.76 206.12 93.73" fill="#eda421"></polygon><circle cx="260.78" cy="66.7" r="2.74" transform="translate(81.73 267.7) rotate(-62.65)" fill="#e05342"></circle><path d="M258.09,67.21s.23,1.41,2.69,1.48,2.64-1.23,2.64-1.23a2.37,2.37,0,0,1,.11,1.3c-.16.65-.91,1.4-2.74,1.4a3.22,3.22,0,0,1-2.69-1.25A2,2,0,0,1,258.09,67.21Z" fill="#3a3935"></path><path d="M65.43,159.69l-18.85,11,16.35,9.53,18.8-10.09C76.31,166.64,70.91,163.11,65.43,159.69Z" opacity="0.63" fill="url(#linear-gradient-4)" style="mix-blend-mode: multiply;"></path><polyline points="44.71 151.13 44.71 166.01 68.78 166.01 68.78 151.13" fill="#f7931e"></polyline><ellipse cx="56.75" cy="151.13" rx="12.04" ry="5.92" fill="#ad5802"></ellipse><ellipse cx="56.75" cy="166.59" rx="12.04" ry="5.92" fill="#f7931e"></ellipse><path d="M70.23,116.53c-2.54-1-6.06-4.5-9.13-4.39a36,36,0,0,0-1.86,9.13,82.89,82.89,0,0,0-.35,15.25q.11,1.7.28,3.39a2.7,2.7,0,0,0,.27,1q0,5.89,0,11.78a.37.37,0,0,0,.75,0q0-5.67,0-11.33a16.7,16.7,0,0,0,3.45-1.59,11.73,11.73,0,0,0,4.85-6.09c1.94-5.41.72-11.45,2.56-16.8C70.76,116.73,70.49,116.64,70.23,116.53Z" fill="#297600"></path><path d="M65,107.66a9.43,9.43,0,0,0-3.44,3.52,5.9,5.9,0,0,0-.54,1l-.1.23h0a15.74,15.74,0,0,0-.58,1.87,2.33,2.33,0,0,1,1.28-1,3.18,3.18,0,0,1,2-.18,8.42,8.42,0,0,1,1.84,1c.86.52,1.69,1.1,2.53,1.64,4,2.53,9.3,2.79,12.38-.9,0-.15.08-.29.1-.44C81,111.88,73.84,102.54,65,107.66Z" fill="#5fad00"></path><path d="M78.63,116.42l.5-.33a.34.34,0,0,0-.1-.29c-2.41-2.48-5-4.9-8.3-6.12a14.21,14.21,0,0,0-7.41-.73c-.27.31-.51.64-.75,1a12.87,12.87,0,0,1,8.52.71c2.91,1.24,5.23,3.47,7.41,5.71A.36.36,0,0,0,78.63,116.42Z" fill="#297600"></path><path d="M38.22,121.81a10.05,10.05,0,0,0-5.38,9.64c.28,7.1,12,.17,15.1-5.83s3.59,2.56,3.59,2.56" fill="#297600"></path><path d="M48.76,119.33a21.19,21.19,0,0,0-6.49.9,15.76,15.76,0,0,0-4,1.58,13,13,0,0,0,2.34,1.24,7.11,7.11,0,0,1,3.78,2.71,5.4,5.4,0,0,1,.45,1.07c.71,2.34.1,5.17,1.06,7.52s2.92,4.42,5.69,4.59c3.3.2,4.81-3,5.46-5.71s1.54-6.48.5-9.3C56.29,120.66,51.88,119.48,48.76,119.33Z" fill="#5fad00"></path><path d="M53.1,130.42c-1.38-4.49-4.32-8.72-8.61-10.7h-.16l-.2.06-.78.2c5,1.86,8.14,6.79,9.43,11.83,1.64,6.45,1.09,13.43,1.1,20a.35.35,0,0,0,.69,0C54.55,144.79,55.2,137.24,53.1,130.42Z" fill="#297600"></path><path d="M127,123.86,107.22,135.4l17.15,10,19.71-10.58C138.39,131.14,132.72,127.44,127,123.86Z" opacity="0.63" fill="url(#linear-gradient-5)" style="mix-blend-mode: multiply;"></path><polyline points="102.68 112.2 102.68 132.85 118.79 142.06 136.98 131.32 136.98 110.67" fill="#ffad4a"></polyline><polygon points="102.68 112.2 121.37 101.56 136.98 110.67 118.79 121.41 102.68 112.2" fill="#fd9"></polygon><polygon points="118.79 121.41 118.79 142.06 136.98 131.32 136.98 110.67 118.79 121.41" fill="#ffc36c"></polygon><polygon points="108.53 115.24 127.19 104.67 131.13 106.97 112.6 117.57 112.6 130.22 108.53 128.09 108.53 115.24" fill="#ad5802"></polygon><path d="M278.54,147.32l-17,9.92,14.73,8.58,16.94-9.09C288.34,153.57,283.47,150.4,278.54,147.32Z" opacity="0.63" fill="url(#linear-gradient-6)" style="mix-blend-mode: multiply;"></path><polyline points="281.49 133.49 281.49 151.91 267.12 160.14 250.89 150.55 250.89 132.12" fill="#ffad4a"></polyline><polygon points="281.49 133.49 264.82 123.99 250.89 132.12 267.12 141.71 281.49 133.49" fill="#fd9"></polygon><polygon points="267.12 141.71 267.12 160.14 250.89 150.55 250.89 132.12 267.12 141.71" fill="#ffc36c"></polygon><polygon points="276.28 136.2 259.63 126.77 256.11 128.82 272.65 138.28 272.65 149.57 276.28 147.67 276.28 136.2" fill="#ad5802"></polygon><path d="M267.32,205l-17.54,10.25L265,224.11l17.49-9.39C277.44,211.47,272.41,208.19,267.32,205Z" opacity="0.63" fill="url(#linear-gradient-7)" style="mix-blend-mode: multiply;"></path><polyline points="242.41 192.61 242.41 211.04 256.78 219.26 273.01 209.67 273.01 191.24" fill="#ffad4a"></polyline><polygon points="242.41 192.61 259.09 183.11 273.01 191.24 256.78 200.83 242.41 192.61" fill="#fd9"></polygon><polygon points="256.78 200.83 256.78 219.26 273.01 209.67 273.01 191.24 256.78 200.83" fill="#ffc36c"></polygon><polygon points="247.62 195.32 264.28 185.88 267.79 187.94 251.25 197.4 251.25 208.69 247.62 206.79 247.62 195.32" fill="#ad5802"></polygon><polyline points="245.19 147.97 241.94 146.6 244.75 129.42 254.03 133.76 252.95 141.84 251.59 150.13 245.19 147.97 246.19 146.68" fill="#124577"></polyline><path d="M228.58,134.55c.9.33,4.83.33,6.09,4a82.4,82.4,0,0,1,2.24,8.27l9.4-5.33s.56,8.27-.56,10.38-6.59,6.73-11.08,4.07c0,0,.42,3.23,0,4.21s-10.75,2.17-13.13-.91-.75-17.74-.75-17.74" fill="#ff6161"></path><path d="M246.16,145.61c-.15-1.18-.19-2.38-.31-3.57a6,6,0,0,0,.88-.85c.32-.35.63-.7.93-1.07s.39-.79.6-1.17l.24-.49c.3-.61.56-1.58,1.26-1.86a.91.91,0,0,1,1.26.71c.12,1.07-1.7,3.35.45,3.28a7.66,7.66,0,0,1,1.21,0c.82.11,1.57.51,1.27,1.45a1.45,1.45,0,0,1-.18.37,1.1,1.1,0,0,1,.66,1.47,1.22,1.22,0,0,1-.7.7.78.78,0,0,1,0,1,1.2,1.2,0,0,1-.75.46,1,1,0,0,1-.05.48c-.27.73-1.23,1-1.91,1.1a22.31,22.31,0,0,1-4.57.12C246.37,147.07,246.25,146.35,246.16,145.61Z" fill="#f7931e"></path><path d="M234.05,122.93c.59.37.56,9.66-2.08,10.8-3.45,1.5-6.22-2.58-6.54-4.77S227.25,118.62,234.05,122.93Z" fill="#f7931e"></path><path d="M215.86,137.89a4.06,4.06,0,0,0,1.23-1.24,5.52,5.52,0,0,0,.22-1.9c.09-1.57.5-3.23,1.94-4.09.92-.55,2.23-.07,3-.91s.59-2.36.71-3.53c.62-6.07,9.56-7.17,12.43-2.22a3.57,3.57,0,0,1-1.05,4.78,3.52,3.52,0,0,1-1.42.56c-.74.12-1.47.1-1.78.9-.47,1.2.4,2.44.83,3.5.67,1.66.89,4-.73,5.24a8.31,8.31,0,0,1-2.61,1,2.06,2.06,0,0,0-1,.57c-.43.54-.16,1.29-.07,1.9a3,3,0,0,1,0,1,2.07,2.07,0,0,1-.49,1.72c-1,1.18-2.76,1.22-4.16,1.15a13,13,0,0,1-4.74-1.17,7.44,7.44,0,0,1-3.61-2.85C213.71,140.63,214.61,139,215.86,137.89Z" fill="#fcee21"></path><path d="M231.08,146.09a19.82,19.82,0,0,0,.87,5.58,6.69,6.69,0,0,0,3,4c.29.18,0,.64-.27.46a7,7,0,0,1-3.12-3.88,19.62,19.62,0,0,1-1-6.13A.27.27,0,0,1,231.08,146.09Z" fill="#124577" opacity="0.7"></path></g></g></svg>